<?xml version="1.0" encoding="UTF-8"?>
<svg version="1.1" xmlns="http://www.w3.org/2000/svg" xmlns:xlink="http://www.w3.org/1999/xlink" viewBox="0 0 1024 1024">
    <path  d="M512 64C264.6 64 64 264.6 64 512s200.6 448 448 448 448-200.6 448-448S759.4 64 512 64zm271.6 719.6c-65 65-149.2 103.8-239.6 111.2L528 768h-32l-15.8 126.6c-90.6-7.4-174.8-46.2-239.6-111.2-65-65-103.8-149.2-111.2-239.6L256 528v-32l-126.6-15.8c7.4-90.6 46.2-174.8 111.2-239.6 65-65 149.2-103.8 239.6-111.2L496 256h32l15.8-126.6c90.6 7.4 174.8 46.2 239.6 111.2 65 65 103.8 149.2 111.2 239.6L768 496v32l126.6 15.8c-7.4 90.6-46.2 174.8-111 239.8z"></path>
</svg>